<svg width="657.9px" height="122px" xmlns="http://www.w3.org/2000/svg" viewBox="-78.94687499999998 14 657.89375 122" style="background: rgba(0, 0, 0, 0)" preserveAspectRatio="xMidYMid"><defs><linearGradient id="editing-gradient-gradient" x1="0" x2="1" y1="0.5" y2="0.5" gradientUnits="objectBoundingBox"><stop offset="0" stop-color="#ff00ff"></stop><stop offset="1" stop-color="#00ffff"></stop></linearGradient></defs><g><g transform="matrix(1.3,0,0,1.7,-46,211.7)"><path d="M 9.4 -63.8 L -4.6 -63.8 L 3.5 -106.1 L 17.6 -106.1 L 9.4 -63.8 Z M 65.1 -62.5 L 65.1 -62.5 L 65.1 -62.5 Q 57.4 -62.5 57.4 -68.6 L 57.4 -68.6 L 57.4 -68.6 Q 57.4 -71.2 58.5 -76.3 L 58.5 -76.3 L 58.5 -76.3 Q 59.6 -81.4 60 -83.4 L 60 -83.4 L 60 -83.4 Q 60.9 -88.1 60.9 -89.5 L 60.9 -89.5 L 60.9 -89.5 Q 60.9 -92.8 58.4 -92.8 L 58.4 -92.8 L 58.4 -92.8 Q 56.8 -92.8 55.3 -90.6 L 55.3 -90.6 L 55.3 -90.6 Q 53.8 -88.4 53.1 -84 L 53.1 -84 L 49.1 -63.8 L 36.6 -62.5 L 40.1 -79.9 L 40.1 -79.9 Q 40.7 -82.8 41.2 -86.1 L 41.2 -86.1 L 41.2 -86.1 Q 41.7 -89.4 41.7 -89.9 L 41.7 -89.9 L 41.7 -89.9 Q 41.7 -92.8 39.5 -92.8 L 39.5 -92.8 L 39.5 -92.8 Q 38 -92.8 36.4 -90.6 L 36.4 -90.6 L 36.4 -90.6 Q 34.8 -88.5 33.9 -84 L 33.9 -84 L 30 -63.8 L 17.4 -62.5 L 24.1 -96.5 L 34.6 -97.7 L 33.5 -91.3 L 33.5 -91.3 Q 35.2 -94.7 38.2 -96.2 L 38.2 -96.2 L 38.2 -96.2 Q 41.3 -97.7 46.1 -97.7 L 46.1 -97.7 L 46.1 -97.7 Q 48.8 -97.7 50.6 -96.4 L 50.6 -96.4 L 50.6 -96.4 Q 52.4 -95 53 -92.9 L 53 -92.9 L 53 -92.9 Q 54.1 -95.1 56.9 -96.4 L 56.9 -96.4 L 56.9 -96.4 Q 59.7 -97.7 63.1 -97.7 L 63.1 -97.7 L 63.1 -97.7 Q 66.5 -97.7 68.2 -97 L 68.2 -97 L 68.2 -97 Q 69.9 -96.3 70.9 -95 L 70.9 -95 L 70.9 -95 Q 72.7 -92.8 72.7 -88.7 L 72.7 -88.7 L 72.7 -88.7 Q 72.7 -84.7 70.9 -76.3 L 70.9 -76.3 L 70.9 -76.3 Q 70 -72.2 70 -70.7 L 70 -70.7 L 70 -70.7 Q 70 -69.2 70.9 -68.3 L 70.9 -68.3 L 70.9 -68.3 Q 71.8 -67.4 73 -67.3 L 73 -67.3 L 73 -67.3 Q 72.4 -65.1 70.2 -63.8 L 70.2 -63.8 L 70.2 -63.8 Q 68 -62.5 65.1 -62.5 Z M 80.8 -65.7 L 80.8 -65.7 L 80.8 -65.7 Q 79.2 -67.4 78.6 -70 L 78.6 -70 L 78.6 -70 Q 77.9 -72.6 77.9 -76.9 L 77.9 -76.9 L 77.9 -76.9 Q 77.9 -81.2 79.4 -85.1 L 79.4 -85.1 L 79.4 -85.1 Q 80.8 -89 83.5 -91.8 L 83.5 -91.8 L 83.5 -91.8 Q 89 -97.7 98.1 -97.7 L 98.1 -97.7 L 98.1 -97.7 Q 101.4 -97.7 103.8 -96.6 L 103.8 -96.6 L 114.7 -97.7 L 110 -72.8 L 110 -72.8 Q 109.8 -72 109.8 -70.6 L 109.8 -70.6 L 109.8 -70.6 Q 109.8 -69.2 110.6 -68.3 L 110.6 -68.3 L 110.6 -68.3 Q 111.5 -67.4 112.8 -67.3 L 112.8 -67.3 L 112.8 -67.3 Q 112.1 -65.1 109.8 -63.8 L 109.8 -63.8 L 109.8 -63.8 Q 107.5 -62.5 104.8 -62.5 L 104.8 -62.5 L 104.8 -62.5 Q 102.2 -62.5 100.5 -63.5 L 100.5 -63.5 L 100.5 -63.5 Q 98.7 -64.5 98.2 -66.2 L 98.2 -66.2 L 98.2 -66.2 Q 97.2 -64.6 95 -63.6 L 95 -63.6 L 95 -63.6 Q 92.8 -62.5 89.9 -62.5 L 89.9 -62.5 L 89.9 -62.5 Q 87 -62.5 84.6 -63.3 L 84.6 -63.3 L 84.6 -63.3 Q 82.3 -64.1 80.8 -65.7 Z M 94.3 -91.7 L 94.3 -91.7 L 94.3 -91.7 Q 93.5 -90.6 92.9 -88.6 L 92.9 -88.6 L 92.9 -88.6 Q 92.2 -86.7 91.2 -81.4 L 91.2 -81.4 L 91.2 -81.4 Q 90.1 -76.2 90.1 -72.5 L 90.1 -72.5 L 90.1 -72.5 Q 90.1 -68.8 90.7 -67.7 L 90.7 -67.7 L 90.7 -67.7 Q 91.3 -66.6 92.3 -66.6 L 92.3 -66.6 L 92.3 -66.6 Q 94.4 -66.6 95.9 -68.6 L 95.9 -68.6 L 95.9 -68.6 Q 97.4 -70.5 97.9 -74 L 97.9 -74 L 101.3 -92.7 L 101.3 -92.7 Q 100 -93.9 98.4 -93.9 L 98.4 -93.9 L 98.4 -93.9 Q 96.8 -93.9 95.9 -93.4 L 95.9 -93.4 L 95.9 -93.4 Q 95 -92.9 94.3 -91.7 Z M 122.4 -90.6 L 122.4 -90.6 L 122.4 -90.6 Q 124.6 -93.6 127.9 -95.7 L 127.9 -95.7 L 127.9 -95.7 Q 131.2 -97.7 135.2 -97.7 L 135.2 -97.7 L 135.2 -97.7 Q 139.3 -97.7 141.2 -96.5 L 141.2 -96.5 L 153.7 -97.7 L 149.4 -73.2 L 149.4 -73.2 Q 147.2 -60.6 142.4 -55.7 L 142.4 -55.7 L 142.4 -55.7 Q 137.9 -51 129 -51 L 129 -51 L 129 -51 Q 122.3 -51 118.5 -53.1 L 118.5 -53.1 L 118.5 -53.1 Q 114.6 -55.2 114.6 -58.8 L 114.6 -58.8 L 114.6 -58.8 Q 114.6 -61.4 116.6 -62.9 L 116.6 -62.9 L 116.6 -62.9 Q 118.6 -64.4 121.7 -64.4 L 121.7 -64.4 L 121.7 -64.4 Q 124.4 -64.4 126.4 -63.2 L 126.4 -63.2 L 126.4 -63.2 Q 127.6 -62.5 128.2 -61.6 L 128.2 -61.6 L 128.2 -61.6 Q 126.7 -60.4 126.7 -58.2 L 126.7 -58.2 L 126.7 -58.2 Q 126.7 -55.5 129.3 -55.5 L 129.3 -55.5 L 129.3 -55.5 Q 133.6 -55.5 136 -65.6 L 136 -65.6 L 136 -65.6 Q 136.7 -68.4 137.3 -71.1 L 137.3 -71.1 L 137.3 -71.1 Q 134.4 -67.6 127.9 -67.6 L 127.9 -67.6 L 127.9 -67.6 Q 123.3 -67.6 120.7 -69.8 L 120.7 -69.8 L 120.7 -69.8 Q 118.1 -71.9 118.1 -77.1 L 118.1 -77.1 L 118.1 -77.1 Q 118.1 -80.3 119.2 -83.9 L 119.2 -83.9 L 119.2 -83.9 Q 120.3 -87.5 122.4 -90.6 Z M 130.8 -76.9 L 130.8 -76.9 L 130.8 -76.9 Q 130.8 -72.5 133 -72.5 L 133 -72.5 L 133 -72.5 Q 134.5 -72.5 136 -74.2 L 136 -74.2 L 136 -74.2 Q 137.2 -75.5 137.6 -77.5 L 137.6 -77.5 L 140.9 -94 L 140.9 -94 Q 140.6 -94 140.2 -94.2 L 140.2 -94.2 L 140.2 -94.2 Q 139.6 -94.4 138.8 -94.4 L 138.8 -94.4 L 138.8 -94.4 Q 134.9 -94.4 132.6 -88 L 132.6 -88 L 132.6 -88 Q 130.8 -83 130.8 -76.9 Z M 182.2 -74.6 L 182.2 -74.6 L 182.2 -74.6 Q 183.8 -73.5 183.8 -71.1 L 183.8 -71.1 L 183.8 -71.1 Q 183.8 -68.7 182.5 -67.2 L 182.5 -67.2 L 182.5 -67.2 Q 181.3 -65.7 179.3 -64.6 L 179.3 -64.6 L 179.3 -64.6 Q 175.2 -62.5 170.8 -62.5 L 170.8 -62.5 L 170.8 -62.5 Q 166.4 -62.5 163.8 -63.5 L 163.8 -63.5 L 163.8 -63.5 Q 161.2 -64.5 159.5 -66.2 L 159.5 -66.2 L 159.5 -66.2 Q 156.1 -69.6 156.1 -75.8 L 156.1 -75.8 L 156.1 -75.8 Q 156.1 -85.5 161.4 -91.4 L 161.4 -91.4 L 161.4 -91.4 Q 167 -97.7 176.8 -97.7 L 176.8 -97.7 L 176.8 -97.7 Q 182.9 -97.7 185.9 -95.2 L 185.9 -95.2 L 185.9 -95.2 Q 188.1 -93.3 188.1 -90.1 L 188.1 -90.1 L 188.1 -90.1 Q 188.1 -78.9 168.7 -78.9 L 168.7 -78.9 L 168.7 -78.9 Q 168.4 -77.2 168.4 -75.8 L 168.4 -75.8 L 168.4 -75.8 Q 168.4 -72.8 169.7 -71.7 L 169.7 -71.7 L 169.7 -71.7 Q 171 -70.6 173.5 -70.6 L 173.5 -70.6 L 173.5 -70.6 Q 175.9 -70.6 178.5 -71.7 L 178.5 -71.7 L 178.5 -71.7 Q 181.1 -72.8 182.2 -74.6 Z M 169.1 -81.6 L 169.1 -81.6 L 169.1 -81.6 Q 173.6 -81.6 176.3 -84.4 L 176.3 -84.4 L 176.3 -84.4 Q 178.9 -87.1 178.9 -91.4 L 178.9 -91.4 L 178.9 -91.4 Q 178.9 -92.9 178.4 -93.7 L 178.4 -93.7 L 178.4 -93.7 Q 177.8 -94.5 176.7 -94.5 L 176.7 -94.5 L 176.7 -94.5 Q 175.6 -94.5 174.7 -94.1 L 174.7 -94.1 L 174.7 -94.1 Q 173.8 -93.6 172.8 -92.2 L 172.8 -92.2 L 172.8 -92.2 Q 170.4 -89 169.1 -81.6 Z M 209.4 -86.3 L 209.4 -86.3 L 209.4 -86.3 Q 210.3 -88.6 210.3 -90.7 L 210.3 -90.7 L 210.3 -90.7 Q 210.3 -94.5 207.2 -94.5 L 207.2 -94.5 L 207.2 -94.5 Q 205.6 -94.5 204.3 -93 L 204.3 -93 L 204.3 -93 Q 203 -91.6 203 -89.8 L 203 -89.8 L 203 -89.8 Q 203 -88.5 204 -87.5 L 204 -87.5 L 204 -87.5 Q 205.5 -86.1 209.3 -83.8 L 209.3 -83.8 L 209.3 -83.8 Q 213.1 -81.5 214.5 -79.6 L 214.5 -79.6 L 214.5 -79.6 Q 216 -77.7 216 -75.1 L 216 -75.1 L 216 -75.1 Q 216 -72.5 214.7 -70.2 L 214.7 -70.2 L 214.7 -70.2 Q 213.5 -67.8 211.2 -66.1 L 211.2 -66.1 L 211.2 -66.1 Q 206.4 -62.5 198.7 -62.5 L 198.7 -62.5 L 198.7 -62.5 Q 194.6 -62.5 191.4 -64.7 L 191.4 -64.7 L 191.4 -64.7 Q 188.2 -66.8 188.2 -69.3 L 188.2 -69.3 L 188.2 -69.3 Q 188.2 -71.8 190 -73.3 L 190 -73.3 L 190 -73.3 Q 191.8 -74.8 194.5 -74.8 L 194.5 -74.8 L 194.5 -74.8 Q 197.2 -74.8 198.9 -73.7 L 198.9 -73.7 L 198.9 -73.7 Q 198 -71.6 198 -70.2 L 198 -70.2 L 198 -70.2 Q 198 -66 201.6 -66 L 201.6 -66 L 201.6 -66 Q 203.2 -66 204.2 -67 L 204.2 -67 L 204.2 -67 Q 205.2 -67.9 205.2 -69.6 L 205.2 -69.6 L 205.2 -69.6 Q 205.2 -72.8 199.7 -76.3 L 199.7 -76.3 L 199.7 -76.3 Q 195.2 -79.2 194.2 -80.4 L 194.2 -80.4 L 194.2 -80.4 Q 192.5 -82.4 192.5 -85 L 192.5 -85 L 192.5 -85 Q 192.5 -87.6 193.7 -90 L 193.7 -90 L 193.7 -90 Q 194.9 -92.4 197.1 -94.2 L 197.1 -94.2 L 197.1 -94.2 Q 201.8 -97.7 209.9 -97.7 L 209.9 -97.7 L 209.9 -97.7 Q 214.1 -97.7 216.6 -96.1 L 216.6 -96.1 L 216.6 -96.1 Q 219 -94.4 219 -91.6 L 219 -91.6 L 219 -91.6 Q 219 -88.8 217.3 -87.2 L 217.3 -87.2 L 217.3 -87.2 Q 215.6 -85.6 212.6 -85.6 L 212.6 -85.6 L 212.6 -85.6 Q 210.4 -85.6 209.4 -86.3 Z M 260.5 -84.4 L 273.4 -85.6 L 273.4 -85.6 Q 268.8 -75.5 268.8 -63.8 L 268.8 -63.8 L 268.8 -63.8 Q 267.1 -62.5 264.6 -62.5 L 264.6 -62.5 L 264.6 -62.5 Q 262 -62.5 260.4 -63.7 L 260.4 -63.7 L 260.4 -63.7 Q 258.8 -64.9 258.5 -66.1 L 258.5 -66.1 L 258.5 -66.1 Q 256.9 -64.5 254.3 -63.5 L 254.3 -63.5 L 254.3 -63.5 Q 251.7 -62.5 249 -62.5 L 249 -62.5 L 249 -62.5 Q 246.2 -62.5 243.8 -63.4 L 243.8 -63.4 L 243.8 -63.4 Q 241.4 -64.3 239.6 -66.3 L 239.6 -66.3 L 239.6 -66.3 Q 235.5 -70.7 235.5 -78.9 L 235.5 -78.9 L 235.5 -78.9 Q 235.5 -91.7 242.3 -99.4 L 242.3 -99.4 L 242.3 -99.4 Q 249.4 -107.3 261.8 -107.3 L 261.8 -107.3 L 261.8 -107.3 Q 270.5 -107.3 273.6 -102.9 L 273.6 -102.9 L 273.6 -102.9 Q 274.5 -101.4 274.5 -99.8 L 274.5 -99.8 L 274.5 -99.8 Q 274.5 -98.1 273.8 -96.6 L 273.8 -96.6 L 273.8 -96.6 Q 273 -95.2 271.9 -94 L 271.9 -94 L 271.9 -94 Q 269.1 -91.5 265.7 -91.5 L 265.7 -91.5 L 265.7 -91.5 Q 264.4 -91.5 263.1 -91.9 L 263.1 -91.9 L 263.1 -91.9 Q 263.4 -93.8 263.4 -96.1 L 263.4 -96.1 L 263.4 -96.1 Q 263.4 -98.3 263.2 -99.3 L 263.2 -99.3 L 263.2 -99.3 Q 263.1 -100.4 262.7 -101.2 L 262.7 -101.2 L 262.7 -101.2 Q 261.8 -102.9 260 -102.9 L 260 -102.9 L 260 -102.9 Q 258.2 -102.9 256.2 -101 L 256.2 -101 L 256.2 -101 Q 254.2 -99 252.6 -95.8 L 252.6 -95.8 L 252.6 -95.8 Q 249 -88.6 249 -80 L 249 -80 L 249 -80 Q 249 -76 250.6 -73.2 L 250.6 -73.2 L 250.6 -73.2 Q 252.2 -70.2 255.2 -70.2 L 255.2 -70.2 L 255.2 -70.2 Q 256.2 -70.2 257.1 -70.7 L 257.1 -70.7 L 257.1 -70.7 Q 258.1 -71.2 258.4 -71.6 L 258.4 -71.6 L 260.5 -84.4 Z M 279.3 -65.7 L 279.3 -65.7 L 279.3 -65.7 Q 277.8 -67.4 277.2 -70 L 277.2 -70 L 277.2 -70 Q 276.5 -72.6 276.5 -76.9 L 276.5 -76.9 L 276.5 -76.9 Q 276.5 -81.2 278 -85.1 L 278 -85.1 L 278 -85.1 Q 279.4 -89 282.1 -91.8 L 282.1 -91.8 L 282.1 -91.8 Q 287.6 -97.7 296.7 -97.7 L 296.7 -97.7 L 296.7 -97.7 Q 300 -97.7 302.4 -96.6 L 302.4 -96.6 L 313.3 -97.7 L 308.6 -72.8 L 308.6 -72.8 Q 308.4 -72 308.4 -70.6 L 308.4 -70.6 L 308.4 -70.6 Q 308.4 -69.2 309.2 -68.3 L 309.2 -68.3 L 309.2 -68.3 Q 310.1 -67.4 311.4 -67.3 L 311.4 -67.3 L 311.4 -67.3 Q 310.7 -65.1 308.4 -63.8 L 308.4 -63.8 L 308.4 -63.8 Q 306.1 -62.5 303.4 -62.5 L 303.4 -62.5 L 303.4 -62.5 Q 300.8 -62.5 299.1 -63.5 L 299.1 -63.5 L 299.1 -63.5 Q 297.3 -64.5 296.8 -66.2 L 296.8 -66.2 L 296.8 -66.2 Q 295.8 -64.6 293.6 -63.6 L 293.6 -63.6 L 293.6 -63.6 Q 291.4 -62.5 288.5 -62.5 L 288.5 -62.5 L 288.5 -62.5 Q 285.6 -62.5 283.2 -63.3 L 283.2 -63.3 L 283.2 -63.3 Q 280.8 -64.1 279.3 -65.7 Z M 292.8 -91.7 L 292.8 -91.7 L 292.8 -91.7 Q 292.1 -90.6 291.5 -88.6 L 291.5 -88.6 L 291.5 -88.6 Q 290.8 -86.7 289.8 -81.4 L 289.8 -81.4 L 289.8 -81.4 Q 288.7 -76.2 288.7 -72.5 L 288.7 -72.5 L 288.7 -72.5 Q 288.7 -68.8 289.3 -67.7 L 289.3 -67.7 L 289.3 -67.7 Q 289.9 -66.6 290.9 -66.6 L 290.9 -66.6 L 290.9 -66.6 Q 292.9 -66.6 294.4 -68.6 L 294.4 -68.6 L 294.4 -68.6 Q 296 -70.5 296.5 -74 L 296.5 -74 L 299.9 -92.7 L 299.9 -92.7 Q 298.6 -93.9 297 -93.9 L 297 -93.9 L 297 -93.9 Q 295.4 -93.9 294.5 -93.4 L 294.5 -93.4 L 294.5 -93.4 Q 293.6 -92.9 292.8 -91.7 Z M 332 -67.3 L 332 -67.3 L 332 -67.3 Q 330.1 -62.5 323.7 -62.5 L 323.7 -62.5 L 323.7 -62.5 Q 320.5 -62.5 318.5 -64.8 L 318.5 -64.8 L 318.5 -64.8 Q 316.8 -66.6 316.8 -68.7 L 316.8 -68.7 L 316.8 -68.7 Q 316.8 -73.5 319.1 -84 L 319.1 -84 L 323.7 -108.6 L 336.7 -109.9 L 330.5 -77.5 L 330.5 -77.5 Q 329.4 -72.8 329.4 -71.1 L 329.4 -71.1 L 329.4 -71.1 Q 329.4 -67.5 332 -67.3 Z M 352.8 -67.3 L 352.8 -67.3 L 352.8 -67.3 Q 350.8 -62.5 344.5 -62.5 L 344.5 -62.5 L 344.5 -62.5 Q 341.3 -62.5 339.2 -64.8 L 339.2 -64.8 L 339.2 -64.8 Q 337.6 -66.6 337.6 -68.7 L 337.6 -68.7 L 337.6 -68.7 Q 337.6 -73.5 339.8 -84 L 339.8 -84 L 344.5 -108.6 L 357.5 -109.9 L 351.2 -77.5 L 351.2 -77.5 Q 350.2 -72.8 350.2 -71.1 L 350.2 -71.1 L 350.2 -71.1 Q 350.2 -67.5 352.8 -67.3 Z M 384.1 -74.6 L 384.1 -74.6 L 384.1 -74.6 Q 385.7 -73.5 385.7 -71.1 L 385.7 -71.1 L 385.7 -71.1 Q 385.7 -68.7 384.5 -67.2 L 384.5 -67.2 L 384.5 -67.2 Q 383.3 -65.7 381.3 -64.6 L 381.3 -64.6 L 381.3 -64.6 Q 377.2 -62.5 372.8 -62.5 L 372.8 -62.5 L 372.8 -62.5 Q 368.4 -62.5 365.8 -63.5 L 365.8 -63.5 L 365.8 -63.5 Q 363.2 -64.5 361.5 -66.2 L 361.5 -66.2 L 361.5 -66.2 Q 358.1 -69.6 358.1 -75.8 L 358.1 -75.8 L 358.1 -75.8 Q 358.1 -85.5 363.3 -91.4 L 363.3 -91.4 L 363.3 -91.4 Q 369 -97.7 378.8 -97.7 L 378.8 -97.7 L 378.8 -97.7 Q 384.8 -97.7 387.9 -95.2 L 387.9 -95.2 L 387.9 -95.2 Q 390.1 -93.3 390.1 -90.1 L 390.1 -90.1 L 390.1 -90.1 Q 390.1 -78.9 370.6 -78.9 L 370.6 -78.9 L 370.6 -78.9 Q 370.4 -77.2 370.4 -75.8 L 370.4 -75.8 L 370.4 -75.8 Q 370.4 -72.8 371.7 -71.7 L 371.7 -71.7 L 371.7 -71.7 Q 373 -70.6 375.4 -70.6 L 375.4 -70.6 L 375.4 -70.6 Q 377.9 -70.6 380.5 -71.7 L 380.5 -71.7 L 380.5 -71.7 Q 383.1 -72.8 384.1 -74.6 Z M 371.1 -81.6 L 371.1 -81.6 L 371.1 -81.6 Q 375.6 -81.6 378.3 -84.4 L 378.3 -84.4 L 378.3 -84.4 Q 380.9 -87.1 380.9 -91.4 L 380.9 -91.4 L 380.9 -91.4 Q 380.9 -92.9 380.3 -93.7 L 380.3 -93.7 L 380.3 -93.7 Q 379.8 -94.5 378.7 -94.5 L 378.7 -94.5 L 378.7 -94.5 Q 377.6 -94.5 376.7 -94.1 L 376.7 -94.1 L 376.7 -94.1 Q 375.8 -93.6 374.8 -92.2 L 374.8 -92.2 L 374.8 -92.2 Q 372.4 -89 371.1 -81.6 Z M 412.3 -81.8 L 412.3 -81.8 L 412.3 -81.8 Q 414.6 -85.9 414.6 -90.1 L 414.6 -90.1 L 414.6 -90.1 Q 414.6 -92.8 412.6 -92.8 L 412.6 -92.8 L 412.6 -92.8 Q 411.1 -92.8 409.5 -90.2 L 409.5 -90.2 L 409.5 -90.2 Q 407.8 -87.6 407.3 -84.2 L 407.3 -84.2 L 404 -63.8 L 390.7 -62.5 L 397.3 -96.5 L 407.8 -97.7 L 406.7 -91.3 L 406.7 -91.3 Q 409.8 -97.7 416.8 -97.7 L 416.8 -97.7 L 416.8 -97.7 Q 420.6 -97.7 422.6 -95.8 L 422.6 -95.8 L 422.6 -95.8 Q 424.6 -93.9 424.6 -90 L 424.6 -90 L 424.6 -90 Q 424.6 -86 422 -83.5 L 422 -83.5 L 422 -83.5 Q 419.4 -81 415 -81 L 415 -81 L 415 -81 Q 413.1 -81 412.3 -81.8 Z M 446 -71 L 446 -71 L 446 -71 Q 442.6 -67.6 436.6 -67.6 L 436.6 -67.6 L 436.6 -67.6 Q 428.9 -67.6 427.3 -73.2 L 427.3 -73.2 L 427.3 -73.2 Q 426.8 -74.8 426.8 -76.7 L 426.8 -76.7 L 426.8 -76.7 Q 426.8 -78.5 427.2 -80.5 L 427.2 -80.5 L 430.2 -96.5 L 443.2 -97.7 L 439.7 -79.1 L 439.7 -79.1 Q 439.6 -78.3 439.4 -77.4 L 439.4 -77.4 L 439.4 -77.4 Q 439.2 -76.5 439.2 -75.6 L 439.2 -75.6 L 439.2 -75.6 Q 439.2 -74.6 439.5 -74 L 439.5 -74 L 439.5 -74 Q 439.8 -73.4 440.3 -73 L 440.3 -73 L 440.3 -73 Q 441 -72.5 442.4 -72.5 L 442.4 -72.5 L 442.4 -72.5 Q 443.8 -72.5 445 -74.2 L 445 -74.2 L 445 -74.2 Q 446.2 -75.8 446.7 -78.7 L 446.7 -78.7 L 450.3 -96.5 L 462.9 -97.7 L 458.1 -72.6 L 458.1 -72.6 Q 455.7 -60.3 450.8 -55.4 L 450.8 -55.4 L 450.8 -55.4 Q 448.3 -52.9 445.1 -51.9 L 445.1 -51.9 L 445.1 -51.9 Q 441.9 -51 437.7 -51 L 437.7 -51 L 437.7 -51 Q 431 -51 427.2 -53.1 L 427.2 -53.1 L 427.2 -53.1 Q 423.3 -55.2 423.3 -58.7 L 423.3 -58.7 L 423.3 -58.7 Q 423.3 -61.3 425.3 -62.8 L 425.3 -62.8 L 425.3 -62.8 Q 427.3 -64.3 430.4 -64.3 L 430.4 -64.3 L 430.4 -64.3 Q 433 -64.3 435.1 -63.2 L 435.1 -63.2 L 435.1 -63.2 Q 436.3 -62.5 436.9 -61.6 L 436.9 -61.6 L 436.9 -61.6 Q 435.4 -60.3 435.4 -58.2 L 435.4 -58.2 L 435.4 -58.2 Q 435.4 -55.4 438 -55.4 L 438 -55.4 L 438 -55.4 Q 442.2 -55.4 444.6 -65.1 L 444.6 -65.1 L 444.6 -65.1 Q 445.3 -68 446 -71 Z" fill="url(#editing-gradient-gradient)"></path></g></g><style>text {
  font-size: 64px;
  font-family: Arial Black;
  dominant-baseline: central;
  text-anchor: middle;
}</style></svg>