<svg width="657.9px" height="122px" xmlns="http://www.w3.org/2000/svg" viewBox="-78.94687499999998 14 657.89375 122" style="background: rgba(0, 0, 0, 0)" preserveAspectRatio="xMidYMid"><defs><linearGradient id="editing-gradient-gradient" x1="0" x2="1" y1="0.5" y2="0.5" gradientUnits="objectBoundingBox"><stop offset="0" stop-color="#6a18d7"></stop><stop offset="1" stop-color="#dd930d"></stop></linearGradient></defs><g transform="rotate(0,254.5,87.9)"><g transform="matrix(1.3,0,0,1.5,-50.7,169.2)"><path d="M 8.7 -48 L -5.2 -48 L 2.9 -90.2 L 17 -90.2 L 8.7 -48 Z M 64.5 -46.7 L 64.5 -46.7 L 64.5 -46.7 Q 56.7 -46.7 56.7 -52.7 L 56.7 -52.7 L 56.7 -52.7 Q 56.7 -55.4 57.9 -60.5 L 57.9 -60.5 L 57.9 -60.5 Q 59 -65.5 59.4 -67.6 L 59.4 -67.6 L 59.4 -67.6 Q 60.3 -72.3 60.3 -73.7 L 60.3 -73.7 L 60.3 -73.7 Q 60.3 -77 57.8 -77 L 57.8 -77 L 57.8 -77 Q 56.2 -77 54.7 -74.8 L 54.7 -74.8 L 54.7 -74.8 Q 53.2 -72.6 52.5 -68.2 L 52.5 -68.2 L 48.5 -48 L 36 -46.7 L 39.5 -64.1 L 39.5 -64.1 Q 40 -67 40.5 -70.3 L 40.5 -70.3 L 40.5 -70.3 Q 41.1 -73.5 41.1 -74.1 L 41.1 -74.1 L 41.1 -74.1 Q 41.1 -77 38.9 -77 L 38.9 -77 L 38.9 -77 Q 37.4 -77 35.8 -74.8 L 35.8 -74.8 L 35.8 -74.8 Q 34.2 -72.6 33.3 -68.2 L 33.3 -68.2 L 29.4 -48 L 16.8 -46.7 L 23.5 -80.6 L 34 -81.9 L 32.9 -75.5 L 32.9 -75.5 Q 34.5 -78.9 37.6 -80.4 L 37.6 -80.4 L 37.6 -80.4 Q 40.7 -81.9 45.5 -81.9 L 45.5 -81.9 L 45.5 -81.9 Q 48.2 -81.9 50 -80.6 L 50 -80.6 L 50 -80.6 Q 51.8 -79.2 52.4 -77.1 L 52.4 -77.1 L 52.4 -77.1 Q 53.5 -79.3 56.3 -80.6 L 56.3 -80.6 L 56.3 -80.6 Q 59 -81.9 62.5 -81.9 L 62.5 -81.9 L 62.5 -81.9 Q 65.9 -81.9 67.6 -81.2 L 67.6 -81.2 L 67.6 -81.2 Q 69.3 -80.5 70.3 -79.2 L 70.3 -79.2 L 70.3 -79.2 Q 72 -77 72 -72.9 L 72 -72.9 L 72 -72.9 Q 72 -68.9 70.3 -60.5 L 70.3 -60.5 L 70.3 -60.5 Q 69.4 -56.4 69.4 -54.9 L 69.4 -54.9 L 69.4 -54.9 Q 69.4 -53.4 70.3 -52.5 L 70.3 -52.5 L 70.3 -52.5 Q 71.1 -51.6 72.4 -51.5 L 72.4 -51.5 L 72.4 -51.5 Q 71.8 -49.3 69.6 -48 L 69.6 -48 L 69.6 -48 Q 67.4 -46.7 64.5 -46.7 Z M 80.1 -49.9 L 80.1 -49.9 L 80.1 -49.9 Q 78.6 -51.6 78 -54.2 L 78 -54.2 L 78 -54.2 Q 77.3 -56.8 77.3 -61.1 L 77.3 -61.1 L 77.3 -61.1 Q 77.3 -65.4 78.8 -69.3 L 78.8 -69.3 L 78.8 -69.3 Q 80.2 -73.2 82.9 -76 L 82.9 -76 L 82.9 -76 Q 88.4 -81.9 97.5 -81.9 L 97.5 -81.9 L 97.5 -81.9 Q 100.8 -81.9 103.1 -80.8 L 103.1 -80.8 L 114.1 -81.9 L 109.3 -57 L 109.3 -57 Q 109.2 -56.2 109.2 -54.8 L 109.2 -54.8 L 109.2 -54.8 Q 109.2 -53.4 110 -52.5 L 110 -52.5 L 110 -52.5 Q 110.9 -51.6 112.2 -51.5 L 112.2 -51.5 L 112.2 -51.5 Q 111.5 -49.3 109.2 -48 L 109.2 -48 L 109.2 -48 Q 106.9 -46.7 104.2 -46.7 L 104.2 -46.7 L 104.2 -46.7 Q 101.6 -46.7 99.8 -47.7 L 99.8 -47.7 L 99.8 -47.7 Q 98.1 -48.7 97.6 -50.4 L 97.6 -50.4 L 97.6 -50.4 Q 96.5 -48.8 94.4 -47.7 L 94.4 -47.7 L 94.4 -47.7 Q 92.2 -46.7 89.3 -46.7 L 89.3 -46.7 L 89.3 -46.7 Q 86.4 -46.7 84 -47.5 L 84 -47.5 L 84 -47.5 Q 81.6 -48.3 80.1 -49.9 Z M 93.6 -75.9 L 93.6 -75.9 L 93.6 -75.9 Q 92.9 -74.8 92.3 -72.8 L 92.3 -72.8 L 92.3 -72.8 Q 91.6 -70.9 90.6 -65.6 L 90.6 -65.6 L 90.6 -65.6 Q 89.5 -60.4 89.5 -56.7 L 89.5 -56.7 L 89.5 -56.7 Q 89.5 -53 90.1 -51.9 L 90.1 -51.9 L 90.1 -51.9 Q 90.7 -50.8 91.7 -50.8 L 91.7 -50.8 L 91.7 -50.8 Q 93.7 -50.8 95.2 -52.8 L 95.2 -52.8 L 95.2 -52.8 Q 96.7 -54.7 97.3 -58.2 L 97.3 -58.2 L 100.7 -76.9 L 100.7 -76.9 Q 99.4 -78.1 97.8 -78.1 L 97.8 -78.1 L 97.8 -78.1 Q 96.2 -78.1 95.3 -77.6 L 95.3 -77.6 L 95.3 -77.6 Q 94.4 -77.1 93.6 -75.9 Z M 121.8 -74.8 L 121.8 -74.8 L 121.8 -74.8 Q 124 -77.8 127.3 -79.9 L 127.3 -79.9 L 127.3 -79.9 Q 130.6 -81.9 134.6 -81.9 L 134.6 -81.9 L 134.6 -81.9 Q 138.7 -81.9 140.6 -80.6 L 140.6 -80.6 L 153.1 -81.9 L 148.8 -57.3 L 148.8 -57.3 Q 146.5 -44.8 141.8 -39.9 L 141.8 -39.9 L 141.8 -39.9 Q 137.3 -35.2 128.4 -35.2 L 128.4 -35.2 L 128.4 -35.2 Q 121.7 -35.2 117.9 -37.3 L 117.9 -37.3 L 117.9 -37.3 Q 114 -39.4 114 -42.9 L 114 -42.9 L 114 -42.9 Q 114 -45.6 116 -47.1 L 116 -47.1 L 116 -47.1 Q 118 -48.6 121.1 -48.6 L 121.1 -48.6 L 121.1 -48.6 Q 123.7 -48.6 125.8 -47.4 L 125.8 -47.4 L 125.8 -47.4 Q 127 -46.7 127.6 -45.8 L 127.6 -45.8 L 127.6 -45.8 Q 126.1 -44.5 126.1 -42.4 L 126.1 -42.4 L 126.1 -42.4 Q 126.1 -39.7 128.7 -39.7 L 128.7 -39.7 L 128.7 -39.7 Q 133 -39.7 135.4 -49.8 L 135.4 -49.8 L 135.4 -49.8 Q 136.1 -52.5 136.7 -55.3 L 136.7 -55.3 L 136.7 -55.3 Q 133.8 -51.8 127.3 -51.8 L 127.3 -51.8 L 127.3 -51.8 Q 122.7 -51.8 120.1 -54 L 120.1 -54 L 120.1 -54 Q 117.5 -56.1 117.5 -61.3 L 117.5 -61.3 L 117.5 -61.3 Q 117.5 -64.5 118.6 -68.1 L 118.6 -68.1 L 118.6 -68.1 Q 119.7 -71.7 121.8 -74.8 Z M 130.1 -61.1 L 130.1 -61.1 L 130.1 -61.1 Q 130.1 -56.7 132.4 -56.7 L 132.4 -56.7 L 132.4 -56.7 Q 133.9 -56.7 135.4 -58.4 L 135.4 -58.4 L 135.4 -58.4 Q 136.5 -59.7 137 -61.7 L 137 -61.7 L 140.3 -78.1 L 140.3 -78.1 Q 139.9 -78.2 139.6 -78.3 L 139.6 -78.3 L 139.6 -78.3 Q 139 -78.6 138.1 -78.6 L 138.1 -78.6 L 138.1 -78.6 Q 134.2 -78.6 131.9 -72.2 L 131.9 -72.2 L 131.9 -72.2 Q 130.1 -67.2 130.1 -61.1 Z M 181.5 -58.8 L 181.5 -58.8 L 181.5 -58.8 Q 183.1 -57.7 183.1 -55.3 L 183.1 -55.3 L 183.1 -55.3 Q 183.1 -52.9 181.9 -51.4 L 181.9 -51.4 L 181.9 -51.4 Q 180.7 -49.9 178.7 -48.8 L 178.7 -48.8 L 178.7 -48.8 Q 174.6 -46.7 170.2 -46.7 L 170.2 -46.7 L 170.2 -46.7 Q 165.8 -46.7 163.2 -47.7 L 163.2 -47.7 L 163.2 -47.7 Q 160.6 -48.6 158.9 -50.4 L 158.9 -50.4 L 158.9 -50.4 Q 155.5 -53.8 155.5 -60 L 155.5 -60 L 155.5 -60 Q 155.5 -69.7 160.7 -75.6 L 160.7 -75.6 L 160.7 -75.6 Q 166.4 -81.9 176.2 -81.9 L 176.2 -81.9 L 176.2 -81.9 Q 182.2 -81.9 185.3 -79.4 L 185.3 -79.4 L 185.3 -79.4 Q 187.5 -77.4 187.5 -74.3 L 187.5 -74.3 L 187.5 -74.3 Q 187.5 -63 168 -63 L 168 -63 L 168 -63 Q 167.8 -61.4 167.8 -60 L 167.8 -60 L 167.8 -60 Q 167.8 -57 169.1 -55.9 L 169.1 -55.9 L 169.1 -55.9 Q 170.4 -54.8 172.8 -54.8 L 172.8 -54.8 L 172.8 -54.8 Q 175.3 -54.8 177.9 -55.9 L 177.9 -55.9 L 177.9 -55.9 Q 180.5 -57 181.5 -58.8 Z M 168.5 -65.8 L 168.5 -65.8 L 168.5 -65.8 Q 173 -65.8 175.7 -68.6 L 175.7 -68.6 L 175.7 -68.6 Q 178.3 -71.3 178.3 -75.6 L 178.3 -75.6 L 178.3 -75.6 Q 178.3 -77.1 177.7 -77.9 L 177.7 -77.9 L 177.7 -77.9 Q 177.2 -78.7 176.1 -78.7 L 176.1 -78.7 L 176.1 -78.7 Q 175 -78.7 174.1 -78.2 L 174.1 -78.2 L 174.1 -78.2 Q 173.2 -77.8 172.2 -76.4 L 172.2 -76.4 L 172.2 -76.4 Q 169.8 -73.2 168.5 -65.8 Z M 208.8 -70.5 L 208.8 -70.5 L 208.8 -70.5 Q 209.7 -72.8 209.7 -74.9 L 209.7 -74.9 L 209.7 -74.9 Q 209.7 -78.7 206.6 -78.7 L 206.6 -78.7 L 206.6 -78.7 Q 205 -78.7 203.7 -77.2 L 203.7 -77.2 L 203.7 -77.2 Q 202.4 -75.8 202.4 -74 L 202.4 -74 L 202.4 -74 Q 202.4 -72.7 203.4 -71.7 L 203.4 -71.7 L 203.4 -71.7 Q 204.9 -70.3 208.7 -68 L 208.7 -68 L 208.7 -68 Q 212.5 -65.7 213.9 -63.8 L 213.9 -63.8 L 213.9 -63.8 Q 215.3 -61.9 215.3 -59.3 L 215.3 -59.3 L 215.3 -59.3 Q 215.3 -56.7 214.1 -54.3 L 214.1 -54.3 L 214.1 -54.3 Q 212.8 -52 210.6 -50.3 L 210.6 -50.3 L 210.6 -50.3 Q 205.8 -46.7 198.1 -46.7 L 198.1 -46.7 L 198.1 -46.7 Q 194 -46.7 190.8 -48.9 L 190.8 -48.9 L 190.8 -48.9 Q 187.6 -51 187.6 -53.5 L 187.6 -53.5 L 187.6 -53.5 Q 187.6 -56 189.4 -57.5 L 189.4 -57.5 L 189.4 -57.5 Q 191.2 -58.9 193.9 -58.9 L 193.9 -58.9 L 193.9 -58.9 Q 196.6 -58.9 198.2 -57.9 L 198.2 -57.9 L 198.2 -57.9 Q 197.4 -55.8 197.4 -54.4 L 197.4 -54.4 L 197.4 -54.4 Q 197.4 -50.2 201 -50.2 L 201 -50.2 L 201 -50.2 Q 202.5 -50.2 203.6 -51.1 L 203.6 -51.1 L 203.6 -51.1 Q 204.6 -52.1 204.6 -53.8 L 204.6 -53.8 L 204.6 -53.8 Q 204.6 -57 199.1 -60.5 L 199.1 -60.5 L 199.1 -60.5 Q 194.6 -63.4 193.6 -64.6 L 193.6 -64.6 L 193.6 -64.6 Q 191.8 -66.6 191.8 -69.2 L 191.8 -69.2 L 191.8 -69.2 Q 191.8 -71.7 193.1 -74.2 L 193.1 -74.2 L 193.1 -74.2 Q 194.3 -76.6 196.5 -78.3 L 196.5 -78.3 L 196.5 -78.3 Q 201.2 -81.9 209.3 -81.9 L 209.3 -81.9 L 209.3 -81.9 Q 213.5 -81.9 215.9 -80.3 L 215.9 -80.3 L 215.9 -80.3 Q 218.4 -78.6 218.4 -75.8 L 218.4 -75.8 L 218.4 -75.8 Q 218.4 -73 216.7 -71.4 L 216.7 -71.4 L 216.7 -71.4 Q 215 -69.8 211.9 -69.8 L 211.9 -69.8 L 211.9 -69.8 Q 209.8 -69.8 208.8 -70.5 Z M 259.9 -68.6 L 272.8 -69.8 L 272.8 -69.8 Q 268.2 -59.7 268.2 -47.9 L 268.2 -47.9 L 268.2 -47.9 Q 266.5 -46.7 263.9 -46.7 L 263.9 -46.7 L 263.9 -46.7 Q 261.4 -46.7 259.8 -47.9 L 259.8 -47.9 L 259.8 -47.9 Q 258.2 -49.1 257.9 -50.3 L 257.9 -50.3 L 257.9 -50.3 Q 256.3 -48.6 253.7 -47.7 L 253.7 -47.7 L 253.7 -47.7 Q 251.1 -46.7 248.4 -46.7 L 248.4 -46.7 L 248.4 -46.7 Q 245.6 -46.7 243.2 -47.6 L 243.2 -47.6 L 243.2 -47.6 Q 240.8 -48.5 238.9 -50.5 L 238.9 -50.5 L 238.9 -50.5 Q 234.9 -54.9 234.9 -63.1 L 234.9 -63.1 L 234.9 -63.1 Q 234.9 -75.9 241.7 -83.6 L 241.7 -83.6 L 241.7 -83.6 Q 248.7 -91.5 261.2 -91.5 L 261.2 -91.5 L 261.2 -91.5 Q 269.9 -91.5 272.9 -87 L 272.9 -87 L 272.9 -87 Q 273.9 -85.6 273.9 -83.9 L 273.9 -83.9 L 273.9 -83.9 Q 273.9 -82.2 273.2 -80.8 L 273.2 -80.8 L 273.2 -80.8 Q 272.4 -79.4 271.3 -78.2 L 271.3 -78.2 L 271.3 -78.2 Q 268.5 -75.7 265.1 -75.7 L 265.1 -75.7 L 265.1 -75.7 Q 263.8 -75.7 262.5 -76.1 L 262.5 -76.1 L 262.5 -76.1 Q 262.8 -78 262.8 -80.3 L 262.8 -80.3 L 262.8 -80.3 Q 262.8 -82.5 262.6 -83.5 L 262.6 -83.5 L 262.6 -83.5 Q 262.4 -84.5 262.1 -85.4 L 262.1 -85.4 L 262.1 -85.4 Q 261.2 -87.1 259.4 -87.1 L 259.4 -87.1 L 259.4 -87.1 Q 257.6 -87.1 255.6 -85.2 L 255.6 -85.2 L 255.6 -85.2 Q 253.5 -83.2 251.9 -80 L 251.9 -80 L 251.9 -80 Q 248.4 -72.8 248.4 -64.2 L 248.4 -64.2 L 248.4 -64.2 Q 248.4 -60.2 250 -57.4 L 250 -57.4 L 250 -57.4 Q 251.6 -54.3 254.6 -54.3 L 254.6 -54.3 L 254.6 -54.3 Q 255.6 -54.3 256.5 -54.9 L 256.5 -54.9 L 256.5 -54.9 Q 257.4 -55.4 257.8 -55.7 L 257.8 -55.7 L 259.9 -68.6 Z M 278.7 -49.9 L 278.7 -49.9 L 278.7 -49.9 Q 277.2 -51.6 276.5 -54.2 L 276.5 -54.2 L 276.5 -54.2 Q 275.9 -56.8 275.9 -61.1 L 275.9 -61.1 L 275.9 -61.1 Q 275.9 -65.4 277.3 -69.3 L 277.3 -69.3 L 277.3 -69.3 Q 278.8 -73.2 281.5 -76 L 281.5 -76 L 281.5 -76 Q 287 -81.9 296.1 -81.9 L 296.1 -81.9 L 296.1 -81.9 Q 299.4 -81.9 301.7 -80.8 L 301.7 -80.8 L 312.7 -81.9 L 307.9 -57 L 307.9 -57 Q 307.7 -56.2 307.7 -54.8 L 307.7 -54.8 L 307.7 -54.8 Q 307.7 -53.4 308.6 -52.5 L 308.6 -52.5 L 308.6 -52.5 Q 309.5 -51.6 310.8 -51.5 L 310.8 -51.5 L 310.8 -51.5 Q 310.1 -49.3 307.8 -48 L 307.8 -48 L 307.8 -48 Q 305.4 -46.7 302.8 -46.7 L 302.8 -46.7 L 302.8 -46.7 Q 300.2 -46.7 298.4 -47.7 L 298.4 -47.7 L 298.4 -47.7 Q 296.7 -48.7 296.2 -50.4 L 296.2 -50.4 L 296.2 -50.4 Q 295.1 -48.8 293 -47.7 L 293 -47.7 L 293 -47.7 Q 290.8 -46.7 287.9 -46.7 L 287.9 -46.7 L 287.9 -46.7 Q 285 -46.7 282.6 -47.5 L 282.6 -47.5 L 282.6 -47.5 Q 280.2 -48.3 278.7 -49.9 Z M 292.2 -75.9 L 292.2 -75.9 L 292.2 -75.9 Q 291.5 -74.8 290.9 -72.8 L 290.9 -72.8 L 290.9 -72.8 Q 290.2 -70.9 289.2 -65.6 L 289.2 -65.6 L 289.2 -65.6 Q 288.1 -60.4 288.1 -56.7 L 288.1 -56.7 L 288.1 -56.7 Q 288.1 -53 288.7 -51.9 L 288.7 -51.9 L 288.7 -51.9 Q 289.3 -50.8 290.3 -50.8 L 290.3 -50.8 L 290.3 -50.8 Q 292.3 -50.8 293.8 -52.8 L 293.8 -52.8 L 293.8 -52.8 Q 295.3 -54.7 295.9 -58.2 L 295.9 -58.2 L 299.3 -76.9 L 299.3 -76.9 Q 298 -78.1 296.4 -78.1 L 296.4 -78.1 L 296.4 -78.1 Q 294.8 -78.1 293.9 -77.6 L 293.9 -77.6 L 293.9 -77.6 Q 293 -77.1 292.2 -75.9 Z M 331.4 -51.5 L 331.4 -51.5 L 331.4 -51.5 Q 329.4 -46.7 323.1 -46.7 L 323.1 -46.7 L 323.1 -46.7 Q 319.9 -46.7 317.9 -49 L 317.9 -49 L 317.9 -49 Q 316.2 -50.8 316.2 -52.9 L 316.2 -52.9 L 316.2 -52.9 Q 316.2 -57.7 318.4 -68.2 L 318.4 -68.2 L 323.1 -92.8 L 336.1 -94.1 L 329.9 -61.7 L 329.9 -61.7 Q 328.8 -57 328.8 -55.3 L 328.8 -55.3 L 328.8 -55.3 Q 328.8 -51.7 331.4 -51.5 Z M 352.2 -51.5 L 352.2 -51.5 L 352.2 -51.5 Q 350.2 -46.7 343.8 -46.7 L 343.8 -46.7 L 343.8 -46.7 Q 340.6 -46.7 338.6 -49 L 338.6 -49 L 338.6 -49 Q 336.9 -50.8 336.9 -52.9 L 336.9 -52.9 L 336.9 -52.9 Q 336.9 -57.7 339.2 -68.2 L 339.2 -68.2 L 343.8 -92.8 L 356.8 -94.1 L 350.6 -61.7 L 350.6 -61.7 Q 349.5 -57 349.5 -55.3 L 349.5 -55.3 L 349.5 -55.3 Q 349.5 -51.7 352.2 -51.5 Z M 383.5 -58.8 L 383.5 -58.8 L 383.5 -58.8 Q 385.1 -57.7 385.1 -55.3 L 385.1 -55.3 L 385.1 -55.3 Q 385.1 -52.9 383.9 -51.4 L 383.9 -51.4 L 383.9 -51.4 Q 382.7 -49.9 380.7 -48.8 L 380.7 -48.8 L 380.7 -48.8 Q 376.6 -46.7 372.2 -46.7 L 372.2 -46.7 L 372.2 -46.7 Q 367.8 -46.7 365.2 -47.7 L 365.2 -47.7 L 365.2 -47.7 Q 362.6 -48.6 360.9 -50.4 L 360.9 -50.4 L 360.9 -50.4 Q 357.5 -53.8 357.5 -60 L 357.5 -60 L 357.5 -60 Q 357.5 -69.7 362.7 -75.6 L 362.7 -75.6 L 362.7 -75.6 Q 368.4 -81.9 378.1 -81.9 L 378.1 -81.9 L 378.1 -81.9 Q 384.2 -81.9 387.2 -79.4 L 387.2 -79.4 L 387.2 -79.4 Q 389.5 -77.4 389.5 -74.3 L 389.5 -74.3 L 389.5 -74.3 Q 389.5 -63 370 -63 L 370 -63 L 370 -63 Q 369.8 -61.4 369.8 -60 L 369.8 -60 L 369.8 -60 Q 369.8 -57 371.1 -55.9 L 371.1 -55.9 L 371.1 -55.9 Q 372.4 -54.8 374.8 -54.8 L 374.8 -54.8 L 374.8 -54.8 Q 377.3 -54.8 379.8 -55.9 L 379.8 -55.9 L 379.8 -55.9 Q 382.4 -57 383.5 -58.8 Z M 370.5 -65.8 L 370.5 -65.8 L 370.5 -65.8 Q 375 -65.8 377.6 -68.6 L 377.6 -68.6 L 377.6 -68.6 Q 380.3 -71.3 380.3 -75.6 L 380.3 -75.6 L 380.3 -75.6 Q 380.3 -77.1 379.7 -77.9 L 379.7 -77.9 L 379.7 -77.9 Q 379.2 -78.7 378.1 -78.7 L 378.1 -78.7 L 378.1 -78.7 Q 377 -78.7 376.1 -78.2 L 376.1 -78.2 L 376.1 -78.2 Q 375.1 -77.8 374.2 -76.4 L 374.2 -76.4 L 374.2 -76.4 Q 371.8 -73.2 370.5 -65.8 Z M 411.7 -66 L 411.7 -66 L 411.7 -66 Q 414 -70.1 414 -74.2 L 414 -74.2 L 414 -74.2 Q 414 -77 412 -77 L 412 -77 L 412 -77 Q 410.5 -77 408.9 -74.4 L 408.9 -74.4 L 408.9 -74.4 Q 407.2 -71.7 406.7 -68.4 L 406.7 -68.4 L 403.4 -48 L 390.1 -46.7 L 396.6 -80.6 L 407.2 -81.9 L 406.1 -75.5 L 406.1 -75.5 Q 409.2 -81.9 416.2 -81.9 L 416.2 -81.9 L 416.2 -81.9 Q 419.9 -81.9 422 -80 L 422 -80 L 422 -80 Q 424 -78.1 424 -74.1 L 424 -74.1 L 424 -74.1 Q 424 -70.2 421.4 -67.7 L 421.4 -67.7 L 421.4 -67.7 Q 418.8 -65.2 414.4 -65.2 L 414.4 -65.2 L 414.4 -65.2 Q 412.5 -65.2 411.7 -66 Z M 445.3 -55.2 L 445.3 -55.2 L 445.3 -55.2 Q 442 -51.8 435.9 -51.8 L 435.9 -51.8 L 435.9 -51.8 Q 428.3 -51.8 426.7 -57.3 L 426.7 -57.3 L 426.7 -57.3 Q 426.2 -59 426.2 -60.9 L 426.2 -60.9 L 426.2 -60.9 Q 426.2 -62.7 426.6 -64.6 L 426.6 -64.6 L 429.6 -80.6 L 442.6 -81.9 L 439.1 -63.3 L 439.1 -63.3 Q 438.9 -62.5 438.8 -61.6 L 438.8 -61.6 L 438.8 -61.6 Q 438.6 -60.7 438.6 -59.7 L 438.6 -59.7 L 438.6 -59.7 Q 438.6 -58.8 438.9 -58.2 L 438.9 -58.2 L 438.9 -58.2 Q 439.2 -57.6 439.7 -57.2 L 439.7 -57.2 L 439.7 -57.2 Q 440.4 -56.7 441.8 -56.7 L 441.8 -56.7 L 441.8 -56.7 Q 443.2 -56.7 444.4 -58.4 L 444.4 -58.4 L 444.4 -58.4 Q 445.5 -60 446.1 -62.9 L 446.1 -62.9 L 449.6 -80.6 L 462.2 -81.9 L 457.4 -56.8 L 457.4 -56.8 Q 455.1 -44.5 450.2 -39.6 L 450.2 -39.6 L 450.2 -39.6 Q 447.7 -37.1 444.5 -36.1 L 444.5 -36.1 L 444.5 -36.1 Q 441.3 -35.1 437.1 -35.1 L 437.1 -35.1 L 437.1 -35.1 Q 430.4 -35.1 426.5 -37.3 L 426.5 -37.3 L 426.5 -37.3 Q 422.7 -39.4 422.7 -42.9 L 422.7 -42.9 L 422.7 -42.9 Q 422.7 -45.5 424.7 -47 L 424.7 -47 L 424.7 -47 Q 426.7 -48.5 429.7 -48.5 L 429.7 -48.5 L 429.7 -48.5 Q 432.4 -48.5 434.5 -47.4 L 434.5 -47.4 L 434.5 -47.4 Q 435.7 -46.7 436.3 -45.8 L 436.3 -45.8 L 436.3 -45.8 Q 434.8 -44.5 434.8 -42.4 L 434.8 -42.4 L 434.8 -42.4 Q 434.8 -39.6 437.3 -39.6 L 437.3 -39.6 L 437.3 -39.6 Q 441.6 -39.6 444 -49.3 L 444 -49.3 L 444 -49.3 Q 444.7 -52.2 445.3 -55.2 Z" fill="url(#editing-gradient-gradient)"></path></g></g><style>text {
  font-size: 64px;
  font-family: Arial Black;
  dominant-baseline: central;
  text-anchor: middle;
}</style></svg>